<svg width="133" height="173" viewBox="0 0 133 173" fill="none" xmlns="http://www.w3.org/2000/svg">
<g clip-path="url(#clip0_1165_4915)">
<path d="M98.3998 27.5601C113.56 37.8001 123.53 55.1401 123.53 74.8201C123.53 101.42 82.8298 153.39 70.2198 168.85C68.3198 171.18 64.7598 171.18 62.8598 168.85C50.2498 153.39 9.5498 101.41 9.5498 74.8201C9.5498 55.1501 19.5198 37.8101 34.6798 27.5601" fill="#B7E24D"/>
<path d="M98.3998 27.5601C113.56 37.8001 123.53 55.1401 123.53 74.8201C123.53 101.42 82.8298 153.39 70.2198 168.85C68.3198 171.18 64.7598 171.18 62.8598 168.85C50.2498 153.39 9.5498 101.41 9.5498 74.8201C9.5498 55.1501 19.5198 37.8101 34.6798 27.5601" stroke="#231815" stroke-width="3.55" stroke-miterlimit="10" stroke-linecap="round"/>
<path d="M66.5398 113.92C44.2398 113.92 26.0898 95.78 26.0898 73.47C26.0898 51.16 44.2298 33.02 66.5398 33.02C88.8498 33.02 106.99 51.16 106.99 73.47C106.99 95.78 88.8498 113.92 66.5398 113.92Z" fill="white"/>
<path d="M66.5398 34.8C87.8598 34.8 105.21 52.15 105.21 73.47C105.21 94.79 87.8598 112.14 66.5398 112.14C45.2198 112.14 27.8698 94.79 27.8698 73.47C27.8698 52.15 45.2198 34.8 66.5398 34.8ZM66.5398 31.25C43.2198 31.25 24.3198 50.15 24.3198 73.47C24.3198 96.79 43.2198 115.69 66.5398 115.69C89.8598 115.69 108.76 96.79 108.76 73.47C108.76 50.15 89.8598 31.25 66.5398 31.25Z" fill="#231815"/>
<path d="M41.9701 64.26L64.8701 72.43C64.8701 72.43 60.3501 82.05 49.5501 78.71C38.7601 75.37 41.9701 64.26 41.9701 64.26Z" fill="#231815" stroke="#231815" stroke-width="3.55" stroke-miterlimit="10"/>
<path d="M91.1202 64.26L68.2202 72.43C68.2202 72.43 72.7402 82.05 83.5402 78.71C94.3302 75.37 91.1202 64.26 91.1202 64.26Z" fill="#231815" stroke="#231815" stroke-width="3.55" stroke-miterlimit="10"/>
<path d="M70.9399 62.8501C72.4599 60.3601 75.4099 58.9401 78.4499 59.5101C79.6499 59.7301 80.7299 60.2401 81.6299 60.9501" stroke="#231815" stroke-width="3.55" stroke-miterlimit="10" stroke-linecap="round"/>
<path d="M61.7198 62.8501C60.1998 60.3601 57.2498 58.9401 54.2098 59.5101C53.0098 59.7301 51.9298 60.2401 51.0298 60.9501" stroke="#231815" stroke-width="3.55" stroke-miterlimit="10" stroke-linecap="round"/>
<path d="M70.9299 96C68.8699 96 66.5899 95.7 64.1499 95.11L85.8099 83.02C84.7599 88.21 81.4299 96 70.9299 96Z" fill="#FF6695"/>
<path d="M82.8099 86.7199C81.0399 90.7499 77.5799 94.2199 70.9199 94.2199C70.4499 94.2199 69.9599 94.1999 69.4599 94.1699L82.7999 86.7199M86.3199 80.8899C86.0999 80.8899 85.8699 80.9499 85.6399 81.0699L62.4099 94.0399C61.3299 94.6399 61.5199 96.2699 62.7199 96.5899C65.8099 97.4199 68.5199 97.7799 70.9099 97.7799C83.5499 97.7799 86.8399 87.5599 87.6899 82.5199C87.8399 81.6199 87.1299 80.8999 86.3199 80.8999V80.8899Z" fill="#231815"/>
<path d="M66.24 49.35C101.846 49.35 130.71 43.1715 130.71 35.55C130.71 27.9285 101.846 21.75 66.24 21.75C30.6342 21.75 1.77002 27.9285 1.77002 35.55C1.77002 43.1715 30.6342 49.35 66.24 49.35Z" fill="#FF6695" stroke="#231815" stroke-width="3.55" stroke-miterlimit="10" stroke-linecap="round"/>
<path d="M23.9102 32.67C23.9102 15.61 43.0002 1.78003 66.5402 1.78003C90.0802 1.78003 109.17 15.61 109.17 32.68C109.17 32.68 105.58 35.47 91.5602 35.55" fill="#FF6695"/>
<path d="M23.9102 32.67C23.9102 15.61 43.0002 1.78003 66.5402 1.78003C90.0802 1.78003 109.17 15.61 109.17 32.68C109.17 32.68 105.58 35.47 91.5602 35.55" stroke="#231815" stroke-width="3.55" stroke-miterlimit="10" stroke-linecap="round"/>
<path d="M51.5598 19.9499C51.5598 19.6599 51.6098 19.3999 51.7098 19.1699C51.8098 18.9499 51.9398 18.7599 52.1098 18.6199C52.2698 18.4799 52.4698 18.3699 52.6798 18.2999C52.8998 18.2299 53.1298 18.1899 53.3798 18.1899C53.8698 18.1899 54.2998 18.3299 54.6598 18.6099C55.0198 18.8899 55.1998 19.3299 55.1998 19.9299V27.5699C55.1998 28.5599 55.0198 29.3799 54.6698 30.0399C54.3198 30.6999 53.8598 31.2299 53.3098 31.6399C52.7598 32.0499 52.1498 32.3299 51.4798 32.5099C50.8098 32.6899 50.1598 32.7699 49.5198 32.7699C48.8798 32.7699 48.2298 32.6799 47.5598 32.5099C46.8898 32.3399 46.2798 32.0499 45.7298 31.6399C45.1798 31.2299 44.7198 30.6999 44.3698 30.0399C44.0198 29.3799 43.8398 28.5599 43.8398 27.5699V19.9299C43.8398 19.6399 43.8898 19.3799 43.9898 19.1499C44.0898 18.9199 44.2198 18.7399 44.3898 18.5999C44.5498 18.4599 44.7498 18.3499 44.9598 18.2799C45.1798 18.2099 45.4098 18.1699 45.6598 18.1699C46.1498 18.1699 46.5798 18.3099 46.9398 18.5899C47.2998 18.8699 47.4798 19.3099 47.4798 19.9099V27.6899C47.4798 28.0199 47.5398 28.3099 47.6698 28.5499C47.7898 28.7999 47.9498 28.9999 48.1498 29.1699C48.3498 29.3399 48.5698 29.4599 48.8098 29.5399C49.0498 29.6199 49.2898 29.6599 49.5198 29.6599C49.7498 29.6599 49.9898 29.6199 50.2298 29.5399C50.4698 29.4599 50.6898 29.3299 50.8898 29.1699C51.0898 29.0099 51.2498 28.7999 51.3698 28.5499C51.4898 28.2999 51.5598 28.0199 51.5598 27.6899V19.9099V19.9499Z" fill="black"/>
<path d="M60.1298 22.4C60.1198 22.73 60.3098 23.01 60.6898 23.25C61.0798 23.49 61.6198 23.72 62.3298 23.96L63.1898 24.26C63.7098 24.45 64.1798 24.68 64.5898 24.97C65.0098 25.25 65.3598 25.58 65.6598 25.97C65.9498 26.35 66.1698 26.78 66.3098 27.26C66.4498 27.74 66.4998 28.26 66.4698 28.82C66.3898 30.08 65.8798 31.05 64.9398 31.75C64.0098 32.44 62.7298 32.79 61.1198 32.79C60.3298 32.79 59.5698 32.7 58.8398 32.53C58.1098 32.36 57.4998 32.09 57.0198 31.71C56.8598 31.57 56.7098 31.41 56.5998 31.22C56.4798 31.04 56.3998 30.85 56.3398 30.65C56.2898 30.45 56.2798 30.24 56.3098 30.02C56.3498 29.8 56.4298 29.59 56.5598 29.39C56.6898 29.19 56.8698 29.04 57.1098 28.93C57.3498 28.82 57.5798 28.76 57.8198 28.75C58.1298 28.74 58.3698 28.79 58.5498 28.89C58.7298 29 58.9098 29.1 59.0698 29.19C59.2698 29.32 59.5298 29.43 59.8498 29.52C60.1698 29.61 60.6298 29.65 61.2298 29.65C61.7198 29.65 62.1098 29.56 62.3798 29.39C62.6498 29.21 62.7898 28.93 62.7998 28.54C62.7998 28.38 62.7298 28.22 62.6098 28.06C62.4798 27.91 62.2998 27.77 62.0498 27.64C61.7998 27.51 61.5298 27.38 61.2098 27.26C60.8898 27.14 60.5498 27.02 60.1898 26.9C60.0498 26.85 59.8998 26.8 59.7398 26.74C59.5798 26.68 59.4498 26.63 59.3398 26.58C58.6698 26.3 58.1298 25.95 57.7198 25.53C57.3098 25.11 56.9998 24.66 56.7898 24.17C56.5798 23.68 56.4798 23.18 56.4698 22.66C56.4698 22.14 56.5398 21.65 56.6898 21.2C56.9998 20.25 57.5598 19.51 58.3898 18.99C59.2198 18.47 60.2398 18.21 61.4498 18.21C61.9098 18.21 62.3098 18.23 62.6598 18.27C63.0098 18.31 63.3098 18.36 63.5798 18.43C63.8398 18.5 64.0698 18.57 64.2698 18.66C64.4598 18.75 64.6398 18.83 64.8098 18.92C65.2198 19.14 65.5398 19.45 65.7698 19.85C65.9998 20.25 66.0498 20.66 65.9198 21.08C65.7998 21.45 65.6098 21.7 65.3298 21.86C65.0498 22.01 64.7398 22.09 64.3998 22.09C64.2698 22.09 64.1198 22.07 63.9598 22.02C63.7898 21.97 63.6698 21.92 63.5898 21.86C63.3798 21.72 63.1098 21.6 62.7798 21.49C62.4498 21.38 62.0198 21.33 61.4898 21.33C61.0698 21.33 60.7298 21.42 60.4898 21.59C60.2498 21.76 60.1198 22.03 60.1098 22.39L60.1298 22.4Z" fill="black"/>
<path d="M71.11 23.76H75.93C76.19 23.76 76.41 23.81 76.58 23.9C76.76 23.99 76.9 24.12 77.02 24.27C77.14 24.42 77.22 24.59 77.28 24.77C77.33 24.95 77.36 25.13 77.36 25.31C77.36 25.49 77.33 25.66 77.28 25.84C77.23 26.02 77.14 26.18 77.03 26.32C76.92 26.47 76.77 26.58 76.59 26.67C76.41 26.76 76.19 26.8 75.93 26.8H71.11V28.86C71.11 29.07 71.15 29.21 71.22 29.27C71.29 29.33 71.43 29.37 71.63 29.37H76.27C76.53 29.37 76.75 29.41 76.93 29.5C77.11 29.59 77.26 29.71 77.37 29.85C77.48 30 77.56 30.16 77.62 30.34C77.68 30.52 77.7 30.7 77.7 30.88C77.7 31.06 77.67 31.24 77.62 31.43C77.57 31.62 77.48 31.79 77.36 31.94C77.24 32.09 77.1 32.22 76.92 32.31C76.74 32.4 76.53 32.45 76.27 32.45H70.25C69.72 32.45 69.28 32.4 68.93 32.3C68.58 32.2 68.29 32.04 68.08 31.81C67.87 31.59 67.72 31.3 67.63 30.95C67.54 30.6 67.5 30.17 67.5 29.66V21.03C67.5 20.52 67.54 20.1 67.63 19.74C67.72 19.39 67.87 19.1 68.08 18.88C68.29 18.66 68.57 18.49 68.93 18.4C69.29 18.31 69.72 18.25 70.25 18.25H76.09C76.35 18.25 76.57 18.3 76.74 18.39C76.92 18.48 77.06 18.61 77.18 18.76C77.3 18.91 77.38 19.08 77.44 19.27C77.49 19.46 77.52 19.64 77.52 19.82C77.52 20 77.49 20.18 77.44 20.36C77.39 20.54 77.3 20.71 77.19 20.85C77.08 21 76.93 21.11 76.75 21.2C76.57 21.29 76.35 21.33 76.09 21.33H71.63C71.43 21.33 71.29 21.36 71.22 21.43C71.15 21.5 71.11 21.63 71.11 21.85V23.74V23.76Z" fill="black"/>
<path d="M90.1101 23.09C90.1101 23.94 89.9101 24.67 89.5201 25.3C89.1301 25.93 88.6101 26.44 87.9801 26.84L91.3301 32.47H87.3401L84.6901 27.72H82.4301V32.47H78.8101V21.06C78.8101 20.55 78.8501 20.13 78.9401 19.77C79.0301 19.42 79.1801 19.13 79.3901 18.91C79.6001 18.69 79.8801 18.52 80.2401 18.43C80.6001 18.34 81.0301 18.28 81.5601 18.28H84.8101C85.5701 18.28 86.2801 18.37 86.9301 18.55C87.5801 18.73 88.1401 19.01 88.6101 19.4C89.0801 19.78 89.4501 20.26 89.7101 20.84C89.9701 21.42 90.1101 22.1 90.1101 22.89V23.1V23.09ZM82.4401 24.75H84.7301C85.3301 24.75 85.7801 24.59 86.0801 24.26C86.3801 23.93 86.5301 23.54 86.5301 23.1V22.98C86.5301 22.53 86.3801 22.15 86.0801 21.82C85.7801 21.49 85.3301 21.33 84.7301 21.33H82.9501C82.7501 21.33 82.6101 21.36 82.5401 21.43C82.4701 21.49 82.4301 21.63 82.4301 21.85V24.78L82.4401 24.75Z" fill="black"/>
</g>
<defs>
<clipPath id="clip0_1165_4915">
<rect width="132.48" height="172.37" fill="white"/>
</clipPath>
</defs>
</svg>
