<svg width="135" height="177" viewBox="0 0 135 177" fill="none" xmlns="http://www.w3.org/2000/svg">
<g clip-path="url(#clip0_1165_4948)">
<path d="M100.13 29.04C115.56 39.46 125.7 57.12 125.7 77.14C125.7 104.21 84.2799 157.11 71.4399 172.85C69.5099 175.22 65.8799 175.22 63.9499 172.85C51.1199 157.11 9.68994 104.21 9.68994 77.14C9.68994 57.12 19.8299 39.47 35.2599 29.04" fill="#C1C1C1"/>
<path d="M100.13 29.04C115.56 39.46 125.7 57.12 125.7 77.14C125.7 104.21 84.2799 157.11 71.4399 172.85C69.5099 175.22 65.8799 175.22 63.9499 172.85C51.1199 157.11 9.68994 104.21 9.68994 77.14C9.68994 57.12 19.8299 39.47 35.2599 29.04" stroke="#231815" stroke-width="3.55" stroke-miterlimit="10" stroke-linecap="round"/>
<path d="M67.7 116.97C44.98 116.97 26.5 98.4901 26.5 75.7701C26.5 53.0501 44.98 34.5701 67.7 34.5701C90.42 34.5701 108.9 53.0501 108.9 75.7701C108.9 98.4901 90.42 116.97 67.7 116.97Z" fill="white"/>
<path d="M67.7002 36.35C89.4402 36.35 107.12 54.04 107.12 75.77C107.12 97.5 89.4402 115.19 67.7002 115.19C45.9602 115.19 28.2802 97.5 28.2802 75.77C28.2802 54.04 45.9602 36.35 67.7002 36.35ZM67.7002 32.8C43.9702 32.8 24.7202 52.04 24.7202 75.78C24.7202 99.5201 43.9602 118.76 67.7002 118.76C91.4402 118.76 110.68 99.5201 110.68 75.78C110.68 52.04 91.4402 32.8 67.7002 32.8Z" fill="#231815"/>
<path d="M42.6802 66.3999L65.9902 74.7099C65.9902 74.7099 61.3902 84.5099 50.4002 81.0999C39.4102 77.6999 42.6802 66.3899 42.6802 66.3899V66.3999Z" fill="#231815" stroke="#231815" stroke-width="3.55" stroke-miterlimit="10" stroke-linejoin="round"/>
<path d="M92.7099 66.3999L69.3999 74.7099C69.3999 74.7099 73.9999 84.5099 84.9899 81.0999C95.9799 77.6999 92.7099 66.3899 92.7099 66.3899V66.3999Z" fill="#231815" stroke="#231815" stroke-width="3.55" stroke-miterlimit="10" stroke-linejoin="round"/>
<path d="M72.1802 64.9601C73.7302 62.4301 76.7302 60.9801 79.8302 61.5601C81.0502 61.7901 82.1502 62.3101 83.0602 63.0301" stroke="#231815" stroke-width="3.55" stroke-miterlimit="10" stroke-linecap="round"/>
<path d="M62.7902 64.9601C61.2402 62.4301 58.2402 60.9801 55.1402 61.5601C53.9202 61.7901 52.8202 62.3101 51.9102 63.0301" stroke="#231815" stroke-width="3.55" stroke-miterlimit="10" stroke-linecap="round"/>
<path d="M72.1599 98.7399C70.0399 98.7399 67.6899 98.4299 65.1699 97.8199L87.3499 85.4399C86.2899 90.7299 82.9099 98.7399 72.1599 98.7399Z" fill="#FF6695"/>
<path d="M84.3902 89.1201C82.6102 93.3201 79.0702 96.9601 72.1602 96.9601C71.6102 96.9601 71.0502 96.9401 70.4602 96.8901L84.3902 89.1201ZM87.8402 83.3301C87.6102 83.3301 87.3802 83.3901 87.1502 83.5101L63.5002 96.7101C62.4002 97.3301 62.6002 98.9801 63.8202 99.3101C66.9702 100.15 69.7302 100.52 72.1502 100.52C85.0202 100.52 88.3602 90.1201 89.2302 84.9901C89.3802 84.0701 88.6602 83.3401 87.8402 83.3401V83.3301Z" fill="#231815"/>
<path d="M67.3898 51.2201C103.625 51.2201 133 44.9297 133 37.1701C133 29.4105 103.625 23.1201 67.3898 23.1201C31.1544 23.1201 1.77979 29.4105 1.77979 37.1701C1.77979 44.9297 31.1544 51.2201 67.3898 51.2201Z" fill="#FF6695" stroke="#231815" stroke-width="3.55" stroke-miterlimit="10" stroke-linecap="round"/>
<path d="M97.47 1.66992H35.27V34.0699C35.27 34.0699 44.78 38.4499 66.5 38.4499C88.22 38.4499 97.47 34.0699 97.47 34.0699V1.66992Z" fill="#FF6695" stroke="#231815" stroke-width="3.34" stroke-miterlimit="10" stroke-linecap="round"/>
<path d="M63.8301 18.3701C63.8301 18.9301 63.6901 19.4501 63.4101 19.9301C63.1301 20.4101 62.7001 20.8101 62.1301 21.1301C62.9101 21.4401 63.4801 21.8801 63.8401 22.4301C64.2001 22.9901 64.3801 23.6201 64.3801 24.3201V24.3401C64.3801 25.1101 64.2401 25.7601 63.9601 26.2901C63.6801 26.8201 63.2901 27.2501 62.7901 27.5801C62.2901 27.9101 61.7101 28.1501 61.0301 28.3001C60.3501 28.4501 59.6101 28.5201 58.8101 28.5201H55.6901C55.1501 28.5201 54.7001 28.4701 54.3401 28.3701C53.9801 28.2701 53.6901 28.1001 53.4801 27.8801C53.2601 27.6501 53.1101 27.3601 53.0201 27.0001C52.9301 26.6401 52.8901 26.2001 52.8901 25.6901V16.9101C52.8901 16.4001 52.9301 15.9601 53.0201 15.6001C53.1101 15.2401 53.2601 14.9501 53.4801 14.7201C53.7001 14.4901 53.9801 14.3301 54.3401 14.2301C54.7001 14.1301 55.1501 14.0801 55.6901 14.0801H58.3101C59.1401 14.0801 59.8901 14.1701 60.5601 14.3601C61.2401 14.5501 61.8201 14.8101 62.3001 15.1701C62.7801 15.5201 63.1601 15.9601 63.4301 16.4801C63.7001 17.0001 63.8301 17.6001 63.8301 18.2701V18.3801V18.3701ZM57.0401 17.1301C56.8401 17.1301 56.7001 17.1601 56.6301 17.2301C56.5601 17.3001 56.5201 17.4401 56.5201 17.6501V19.8401H58.4801C58.7801 19.8401 59.0401 19.8001 59.2501 19.7201C59.4701 19.6401 59.6401 19.5401 59.7801 19.4201C59.9201 19.2901 60.0201 19.1601 60.0901 19.0101C60.1601 18.8601 60.1901 18.7101 60.1901 18.5501V18.4201C60.1901 18.1001 60.0601 17.8001 59.7901 17.5301C59.5201 17.2601 59.0901 17.1301 58.4901 17.1301H57.0501H57.0401ZM56.5201 22.7701V24.9601C56.5201 25.1701 56.5601 25.3201 56.6301 25.3801C56.7001 25.4501 56.8401 25.4801 57.0401 25.4801H59.0201C59.6201 25.4801 60.0501 25.3501 60.3201 25.0801C60.5901 24.8101 60.7201 24.5101 60.7201 24.1901V24.0601C60.7201 23.7401 60.5901 23.4401 60.3201 23.1701C60.0501 22.9001 59.6201 22.7701 59.0201 22.7701H56.5201Z" fill="black"/>
<path d="M65.3701 15.8C65.3701 15.18 65.5601 14.72 65.9301 14.44C66.3001 14.16 66.7401 14.01 67.2401 14.01C67.7401 14.01 68.1801 14.15 68.5501 14.44C68.9201 14.73 69.1101 15.18 69.1101 15.8V28.53H65.3801V15.8H65.3701Z" fill="black"/>
<path d="M71.8698 17.2399C71.6098 17.2399 71.3798 17.1899 71.1998 17.0999C71.0098 16.9999 70.8598 16.8899 70.7498 16.7399C70.6398 16.5999 70.5498 16.4299 70.4998 16.2499C70.4498 16.0599 70.4198 15.8799 70.4198 15.6999C70.4198 15.5199 70.4498 15.3399 70.4998 15.1599C70.5498 14.9799 70.6398 14.8099 70.7498 14.6599C70.8598 14.5099 71.0098 14.3799 71.1998 14.2799C71.3898 14.1799 71.6098 14.1399 71.8698 14.1399H78.5998C79.0998 14.1399 79.5398 14.2199 79.8998 14.3599C80.2598 14.4999 80.5398 14.7399 80.7198 15.0499C80.7998 15.2099 80.8698 15.3799 80.9198 15.5699C80.9698 15.7599 80.9798 15.9699 80.9598 16.2099C80.9398 16.4399 80.8698 16.6999 80.7498 16.9699C80.6398 17.2499 80.4698 17.5399 80.2398 17.8699L74.7498 25.4299H79.7098C79.9698 25.4299 80.1998 25.4799 80.3798 25.5699C80.5698 25.6699 80.7198 25.7899 80.8398 25.9299C80.9598 26.0699 81.0498 26.2399 81.0998 26.4099C81.1498 26.5799 81.1798 26.7699 81.1798 26.9499C81.1798 27.1299 81.1498 27.3099 81.0998 27.4999C81.0498 27.6899 80.9598 27.8599 80.8398 28.0099C80.7198 28.1699 80.5698 28.2899 80.3798 28.3899C80.1898 28.4899 79.9698 28.5299 79.7098 28.5299H72.5298C72.0298 28.5299 71.5998 28.4599 71.2398 28.3099C70.8798 28.1699 70.6098 27.9299 70.4098 27.6099C70.3398 27.4799 70.2798 27.3199 70.2198 27.1399C70.1698 26.9599 70.1498 26.7499 70.1698 26.5199C70.1898 26.2899 70.2498 26.0299 70.3598 25.7399C70.4698 25.4499 70.6498 25.1399 70.8998 24.7899L76.4098 17.2299H71.8798L71.8698 17.2399Z" fill="black"/>
</g>
<defs>
<clipPath id="clip0_1165_4948">
<rect width="134.78" height="176.4" fill="white"/>
</clipPath>
</defs>
</svg>
